<?xml version="1.0" standalone="no"?>
<!DOCTYPE svg PUBLIC "-//W3C//DTD SVG 20010904//EN"
 "http://www.w3.org/TR/2001/REC-SVG-20010904/DTD/svg10.dtd">
<svg version="1.0" xmlns="http://www.w3.org/2000/svg"
  viewBox="0 0 263.000000 338.000000" width="20em" height="40em"
 preserveAspectRatio="xMidYMid meet">

<g transform="translate(0.000000,338.000000) scale(0.100000,-0.100000)"
fill="#E20000" stroke="none">
<path d="M1646 3250 c-75 -23 -102 -84 -93 -211 l7 -86 -74 -27 c-160 -59
-214 -157 -133 -245 25 -27 113 -73 173 -91 41 -12 42 -13 33 -44 -5 -17 -9
-60 -9 -96 0 -74 20 -122 63 -154 58 -42 180 -16 281 62 l40 29 63 -43 c112
-77 210 -90 273 -37 42 35 54 82 47 184 l-7 86 74 27 c160 59 214 157 133 245
-25 27 -113 73 -173 91 -41 12 -42 13 -33 44 14 47 11 152 -5 190 -44 106
-190 105 -330 -2 l-40 -29 -63 43 c-59 40 -146 75 -182 73 -9 0 -29 -5 -45 -9z
m112 -85 c50 -21 112 -65 112 -79 0 -7 -19 -31 -42 -53 -37 -36 -52 -43 -108
-52 -42 -7 -68 -7 -74 -1 -16 16 -13 164 3 183 17 21 60 22 109 2z m468 -17
c13 -24 15 -47 10 -97 -3 -35 -9 -68 -13 -72 -5 -4 -37 -3 -73 2 -57 8 -70 14
-107 51 -24 23 -43 48 -43 54 0 13 77 66 120 83 14 5 40 10 57 10 27 1 35 -5
49 -31z m-266 -149 c0 -5 -11 -9 -25 -9 -27 0 -32 9 -13 28 12 12 38 -1 38
-19z m123 -151 c26 -40 47 -78 47 -84 0 -7 -21 -44 -47 -83 l-47 -71 -101 0
-101 0 -47 72 c-26 40 -47 78 -47 84 0 7 21 44 47 83 l47 71 101 0 101 0 47
-72z m-363 54 c0 -5 -6 -17 -14 -27 -13 -18 -14 -18 -25 2 -9 18 -8 22 7 26
28 8 32 7 32 -1z m470 -2 c4 0 6 -9 3 -20 -7 -25 -19 -26 -33 -1 -14 27 -13
34 6 27 9 -3 19 -6 24 -6z m-575 -77 l25 -56 -22 -55 c-13 -30 -28 -56 -34
-59 -16 -6 -114 35 -151 63 -61 47 -32 96 82 143 28 11 55 20 62 20 6 1 23
-25 38 -56z m737 36 c117 -46 147 -96 85 -143 -42 -32 -145 -72 -155 -60 -5 5
-18 32 -31 59 l-22 50 25 58 c14 31 30 57 36 57 5 0 33 -9 62 -21z m-642 -210
c14 -25 11 -30 -17 -23 -14 4 -19 11 -16 25 7 25 20 24 33 -2z m469 -21 c-29
-11 -33 -5 -18 23 11 22 12 22 26 4 12 -17 11 -20 -8 -27z m-438 -83 c37 -5
54 -14 89 -50 23 -24 40 -49 37 -57 -9 -24 -116 -80 -161 -85 -42 -5 -45 -4
-61 28 -14 25 -16 47 -12 96 7 76 12 84 40 79 12 -3 43 -8 68 -11z m492 -30
c11 -50 4 -130 -13 -150 -25 -30 -104 -12 -182 42 -21 14 -38 31 -38 37 0 7
19 31 43 54 34 34 52 43 97 51 78 13 83 11 93 -34z m-263 22 c0 -2 -8 -11 -18
-21 -18 -15 -20 -15 -37 4 -18 20 -18 20 18 20 21 0 37 -2 37 -3z"/>
<path d="M1878 2844 c-107 -57 -21 -203 96 -164 80 26 90 127 16 165 -36 19
-77 19 -112 -1z"/>
<path d="M1335 2029 c-121 -55 -228 -109 -237 -120 -16 -19 -18 -46 -18 -229
0 -245 -6 -232 119 -286 74 -32 92 -36 148 -32 49 3 69 9 86 26 21 22 22 30
25 243 l3 220 -38 -3 -38 -3 -3 -202 c-2 -203 -2 -203 -27 -219 -28 -18 -61
-11 -148 33 l-47 24 2 201 3 202 215 98 215 99 215 -99 215 -98 0 -204 0 -204
-215 -98 -215 -99 -57 27 c-54 26 -60 27 -100 14 l-43 -13 84 -38 c46 -22 99
-39 117 -39 43 0 471 191 497 221 15 19 17 46 17 229 0 183 -2 210 -17 228
-28 32 -457 222 -501 222 -25 -1 -110 -34 -257 -101z"/>
<path d="M1645 1856 c-5 -2 -22 -7 -37 -10 -44 -10 -88 -54 -88 -88 0 -16 4
-37 10 -47 15 -29 82 -50 187 -61 105 -11 144 -28 136 -58 -7 -30 -46 -42
-131 -42 -84 0 -122 13 -137 48 -8 17 -18 22 -48 22 -38 0 -39 -1 -33 -27 19
-82 166 -124 317 -92 70 15 113 54 113 104 0 64 -41 85 -208 105 -100 12 -126
22 -126 49 0 27 42 41 122 41 68 0 72 -1 104 -36 26 -27 41 -35 61 -32 23 2
28 7 25 27 -3 30 -27 58 -66 78 -27 14 -178 28 -201 19z"/>
<path d="M10 1174 c0 -22 101 -1031 104 -1040 3 -7 109 -37 236 -69 l231 -56
235 57 c130 31 237 62 240 68 3 10 104 1011 104 1037 0 5 -219 9 -575 9 -316
0 -575 -2 -575 -6z m936 -250 c-3 -26 -6 -55 -6 -65 0 -18 -14 -19 -274 -19
-151 0 -276 -3 -279 -7 -2 -5 -1 -34 1 -65 l4 -58 264 0 264 0 0 -22 c0 -30
-30 -337 -35 -364 -4 -19 -25 -27 -152 -58 l-147 -37 -148 36 c-107 27 -149
42 -152 54 -3 9 -8 58 -12 109 l-7 93 74 -3 74 -3 5 -54 5 -55 75 -19 c72 -18
78 -18 158 -2 45 10 84 20 86 24 2 3 7 41 11 84 l7 77 -251 0 c-138 0 -251 1
-251 3 0 1 -9 85 -20 187 -11 102 -20 191 -20 198 0 9 80 12 366 12 l367 0 -7
-46z"/>
</g>
</svg>
