<svg version="1.0" xmlns="http://www.w3.org/2000/svg" viewBox="0 0 322.000000 313.000000" preserveAspectRatio="xMidYMid meet">
  <g transform="translate(0.000000,313.000000) scale(0.100000,-0.100000)"
  fill="#E20000" stroke="none">
  <path d="M350 2654 c0 -22 101 -1031 104 -1040 3 -7 109 -37 236 -69 l231 -56
  235 57 c130 31 237 62 240 68 3 10 104 1011 104 1037 0 5 -219 9 -575 9 -316
  0 -575 -2 -575 -6z m936 -250 c-3 -26 -6 -55 -6 -65 0 -18 -14 -19 -274 -19
  -151 0 -276 -3 -279 -7 -2 -5 -1 -34 1 -65 l4 -58 264 0 264 0 0 -22 c0 -30
  -30 -337 -35 -364 -4 -19 -25 -27 -152 -58 l-147 -37 -148 36 c-107 27 -149
  42 -152 54 -3 9 -8 58 -12 109 l-7 93 74 -3 74 -3 5 -54 5 -55 75 -19 c72 -18
  78 -18 158 -2 45 10 84 20 86 24 2 3 7 41 11 84 l7 77 -251 0 c-138 0 -251 1
  -251 3 0 1 -9 85 -20 187 -11 102 -20 191 -20 198 0 9 80 12 366 12 l367 0 -7
  -46z"/>
  <path d="M2096 2620 c-38 -12 -64 -37 -88 -84 -18 -35 -20 -53 -16 -140 3 -56
  7 -107 9 -114 3 -9 -20 -22 -66 -39 -85 -31 -131 -60 -172 -106 -38 -44 -47
  -69 -38 -113 13 -69 100 -139 230 -184 32 -11 49 -23 46 -31 -2 -8 -6 -56 -9
  -106 -6 -114 11 -169 66 -211 30 -23 45 -27 96 -27 69 1 134 29 221 94 l50 38
  45 -34 c84 -65 158 -97 227 -98 74 0 107 19 141 86 21 40 23 54 19 144 -2 55
  -6 106 -8 113 -3 9 20 22 66 39 85 31 131 60 172 106 38 44 47 69 38 113 -13
  69 -100 139 -230 184 -32 11 -49 23 -46 31 2 8 6 56 9 106 6 114 -11 169 -66
  211 -30 23 -45 27 -96 27 -69 -1 -134 -29 -221 -94 l-50 -38 -45 34 c-102 79
  -214 116 -284 93z m121 -95 c21 -9 61 -34 90 -56 l53 -40 -51 -58 c-51 -58
  -51 -58 -127 -69 -88 -12 -88 -12 -98 65 -18 144 30 201 133 158z m528 -9 c22
  -32 29 -84 21 -148 -10 -79 -10 -78 -98 -66 -76 11 -76 11 -127 69 l-51 57 38
  31 c98 77 188 101 217 57z m-300 -176 c18 -20 17 -20 -20 -20 -37 0 -38 0 -20
  20 10 11 19 20 20 20 1 0 10 -9 20 -20z m151 -202 l56 -91 -17 -31 c-10 -17
  -35 -59 -57 -93 l-40 -63 -114 0 -113 0 -57 92 -56 91 17 31 c10 17 35 59 57
  94 l40 62 114 0 113 0 57 -92z m-416 64 c0 -5 -7 -17 -15 -28 -13 -16 -16 -17
  -25 -4 -17 25 -11 40 15 40 14 0 25 -4 25 -8z m540 -4 c0 -7 -5 -20 -10 -28
  -8 -13 -11 -12 -24 5 -21 28 -20 35 9 35 14 0 25 -6 25 -12z m-656 -87 l27
  -69 -28 -67 c-26 -63 -29 -66 -55 -61 -43 8 -132 53 -162 81 -56 52 -16 113
  110 164 75 30 78 29 108 -48z m860 34 c105 -49 131 -98 80 -148 -29 -29 -117
  -74 -162 -83 -27 -5 -29 -3 -55 64 l-28 70 28 67 c26 63 29 66 55 61 16 -3 52
  -17 82 -31z m-758 -232 c19 -26 17 -33 -11 -33 -26 0 -29 7 -19 34 8 20 14 20
  30 -1z m548 1 c10 -27 7 -34 -19 -34 -28 0 -29 3 -15 31 13 23 26 24 34 3z
  m-513 -129 c53 -7 59 -10 108 -65 l51 -58 -39 -31 c-54 -43 -134 -81 -170 -81
  -24 0 -36 7 -52 33 -17 27 -20 43 -16 107 6 95 13 113 41 106 11 -2 46 -8 77
  -11z m554 -2 c3 -10 9 -47 12 -83 14 -161 -69 -194 -217 -85 l-61 46 51 57
  c48 54 54 58 118 68 92 16 89 16 97 -3z m-295 -16 c0 -2 -8 -11 -18 -21 -18
  -15 -20 -15 -37 4 -18 20 -18 20 18 20 21 0 37 -2 37 -3z"/>
  <path d="M2370 2142 c-49 -24 -76 -80 -60 -127 16 -47 62 -78 116 -78 53 0 91
  24 111 70 12 31 13 41 1 72 -16 41 -69 81 -107 81 -14 0 -42 -8 -61 -18z"/>
  <path d="M1345 1357 c-370 -197 -352 -186 -369 -222 -13 -28 -16 -82 -16 -323
  0 -159 3 -303 6 -321 9 -44 39 -69 150 -126 78 -39 110 -50 159 -53 76 -5 127
  15 155 60 19 31 20 50 20 361 l0 327 -45 0 -44 0 -3 -309 c-3 -293 -4 -310
  -23 -331 -30 -33 -92 -23 -190 31 l-80 45 -3 300 c-2 234 1 304 10 311 25 20
  546 293 558 293 7 0 138 -66 292 -147 l278 -148 -2 -305 -3 -305 -145 -78
  c-80 -43 -207 -110 -283 -150 l-137 -72 -79 42 -79 43 -51 -24 -51 -23 114
  -62 c74 -40 125 -61 146 -61 34 0 71 18 452 222 161 86 189 105 203 134 14 30
  16 75 13 347 -2 256 -6 316 -18 334 -23 35 -607 343 -650 343 -26 0 -103 -36
  -285 -133z"/>
  <path d="M1656 1056 c-30 -8 -62 -27 -84 -49 -30 -30 -36 -44 -40 -89 -4 -47
  -1 -58 22 -85 36 -43 85 -60 228 -78 167 -22 206 -43 180 -100 -20 -43 -72
  -58 -184 -53 -110 4 -146 21 -162 77 -8 29 -11 31 -59 31 l-50 0 6 -39 c11
  -85 77 -134 205 -153 62 -9 98 -9 157 0 137 21 195 73 195 172 0 47 -4 56 -34
  85 -39 36 -75 47 -227 70 -154 23 -169 29 -169 71 0 48 41 68 140 68 96 1 135
  -16 161 -65 18 -37 22 -39 66 -39 l46 0 -6 35 c-9 56 -43 101 -95 127 -58 28
  -218 36 -296 14z"/>
  </g>
</svg>