    <svg version="1.0" xmlns="http://www.w3.org/2000/svg" viewBox="0 0 474.000000 548.000000" preserveAspectRatio="xMidYMid meet">
    <g transform="translate(0.000000,548.000000) scale(0.100000,-0.100000)"
    fill="#FF0000" stroke="none">
    <path d="M2820 5227 l0 -84 61 -6 c34 -3 66 -10 73 -17 7 -7 13 -87 16 -233 5
    -205 7 -226 28 -269 29 -59 98 -122 170 -156 l57 -27 320 -3 c176 -2 329 -1
    340 2 11 3 30 15 43 26 22 21 22 23 22 318 l0 298 -26 52 c-32 64 -79 106
    -164 146 l-65 31 -437 3 -438 3 0 -84z m360 -267 c0 -262 4 -285 55 -308 17
    -8 93 -12 228 -12 184 0 205 2 235 20 18 11 37 32 42 46 6 14 10 81 10 148 0
    110 -2 126 -21 150 -12 15 -30 26 -44 26 -14 0 -32 -11 -44 -26 -18 -23 -21
    -41 -21 -136 l0 -109 -52 3 -53 3 -3 115 c-2 88 -6 118 -19 132 -23 26 -58 22
    -82 -8 -18 -23 -21 -41 -21 -135 l0 -109 -51 0 -51 0 4 141 3 141 37 33 c60
    55 137 65 211 28 24 -12 31 -11 60 4 44 23 126 21 169 -4 18 -10 43 -34 55
    -53 22 -31 23 -43 23 -205 l0 -172 -30 -41 c-16 -23 -49 -52 -72 -64 -41 -22
    -52 -23 -290 -23 l-246 0 -43 30 c-24 17 -54 46 -66 64 -22 33 -23 40 -23 297
    l0 264 50 0 50 0 0 -240z"/>
    <path d="M1370 4715 l0 -385 455 0 455 0 0 385 0 385 -455 0 -455 0 0 -385z
    m495 -117 c0 -147 0 -148 -27 -175 -23 -22 -38 -28 -90 -31 -53 -3 -68 0 -97
    20 -47 32 -48 45 -6 65 35 17 37 17 46 0 13 -22 74 -23 83 -1 3 9 6 74 6 145
    l0 130 43 -3 42 -3 0 -147z m283 132 c39 -24 40 -33 6 -55 -25 -16 -28 -16
    -58 0 -27 14 -37 15 -55 6 -37 -20 -21 -43 49 -72 77 -32 106 -57 116 -94 17
    -69 -43 -125 -135 -125 -63 0 -134 28 -150 58 -8 16 -5 21 22 34 30 15 34 14
    57 -4 17 -14 36 -18 69 -16 41 3 46 6 46 27 0 21 -10 29 -63 50 -90 37 -114
    62 -110 120 3 39 8 49 37 68 44 30 122 31 169 3z"/>
    <path d="M3635 4345 c-77 -21 -121 -42 -160 -76 -48 -42 -65 -78 -65 -134 0
    -92 -47 -148 -179 -215 -76 -38 -131 -87 -131 -116 0 -11 17 -14 74 -14 l74 0
    11 -46 c9 -35 25 -60 65 -99 l53 -51 -26 -25 -26 -24 237 -3 c131 -1 345 -1
    475 0 l238 3 -26 24 -26 25 53 51 c40 39 56 64 65 99 l11 46 74 0 c57 0 74 3
    74 14 0 29 -55 79 -121 111 -143 69 -178 111 -189 221 -7 67 -11 79 -41 111
    -41 42 -109 78 -186 98 -72 19 -259 19 -328 0z m66 -115 c10 -6 19 -19 19 -30
    0 -42 -99 -56 -141 -20 l-24 20 24 20 c26 22 89 27 122 10z m320 -10 l24 -20
    -24 -20 c-26 -22 -89 -27 -122 -10 -24 13 -25 46 -1 59 30 18 98 13 123 -9z
    m-136 -114 c31 -12 56 -26 56 -31 0 -4 -32 -21 -72 -36 l-71 -28 -70 28 c-38
    15 -69 31 -69 36 0 12 133 63 153 58 10 -2 43 -14 73 -27z m95 -185 c124 -47
    168 -143 99 -217 -32 -34 -130 -74 -206 -83 -130 -16 -296 23 -352 83 -26 27
    -40 73 -32 104 8 28 55 78 92 98 95 49 290 57 399 15z"/>
    <path d="M645 4063 c-85 -44 -115 -101 -115 -218 l0 -85 160 0 c157 0 161 -1
    185 -25 14 -13 25 -31 25 -40 0 -13 -35 -15 -292 -15 -329 0 -344 -3 -405 -73
    -45 -52 -53 -91 -53 -272 0 -181 8 -220 53 -272 45 -51 98 -73 180 -73 l67 0
    0 108 c0 127 10 170 52 218 61 69 74 72 358 76 238 3 258 5 295 25 46 24 76
    55 99 100 23 46 23 386 1 441 -20 47 -50 79 -97 103 -33 17 -60 19 -260 19
    -183 -1 -228 -4 -253 -17z m83 -105 c17 -17 15 -68 -5 -90 -22 -25 -59 -23
    -77 4 -20 29 -20 62 0 82 18 19 65 21 82 4z"/>
    <path d="M2136 3920 c-75 -23 -102 -84 -93 -211 l7 -86 -74 -27 c-160 -59
    -214 -157 -133 -245 25 -27 113 -73 173 -91 41 -12 42 -13 33 -44 -5 -17 -9
    -60 -9 -96 0 -74 20 -122 63 -154 58 -42 180 -16 281 62 l40 29 63 -43 c112
    -77 210 -90 273 -37 42 35 54 82 47 184 l-7 86 74 27 c160 59 214 157 133 245
    -25 27 -113 73 -173 91 -41 12 -42 13 -33 44 14 47 11 152 -5 190 -44 106
    -190 105 -330 -2 l-40 -29 -63 43 c-59 40 -146 75 -182 73 -9 0 -29 -5 -45 -9z
    m112 -85 c50 -21 112 -65 112 -79 0 -7 -19 -31 -42 -53 -37 -36 -52 -43 -108
    -52 -42 -7 -68 -7 -74 -1 -16 16 -13 164 3 183 17 21 60 22 109 2z m468 -17
    c13 -24 15 -47 10 -97 -3 -35 -9 -68 -13 -72 -5 -4 -37 -3 -73 2 -57 8 -70 14
    -107 51 -24 23 -43 48 -43 54 0 13 77 66 120 83 14 5 40 10 57 10 27 1 35 -5
    49 -31z m-266 -149 c0 -5 -11 -9 -25 -9 -27 0 -32 9 -13 28 12 12 38 -1 38
    -19z m123 -151 c26 -40 47 -78 47 -84 0 -7 -21 -44 -47 -83 l-47 -71 -101 0
    -101 0 -47 72 c-26 40 -47 78 -47 84 0 7 21 44 47 83 l47 71 101 0 101 0 47
    -72z m-363 54 c0 -5 -6 -17 -14 -27 -13 -18 -14 -18 -25 2 -9 18 -8 22 7 26
    28 8 32 7 32 -1z m470 -2 c4 0 6 -9 3 -20 -7 -25 -19 -26 -33 -1 -14 27 -13
    34 6 27 9 -3 19 -6 24 -6z m-575 -77 l25 -56 -22 -55 c-13 -30 -28 -56 -34
    -59 -16 -6 -114 35 -151 63 -61 47 -32 96 82 143 28 11 55 20 62 20 6 1 23
    -25 38 -56z m737 36 c117 -46 147 -96 85 -143 -42 -32 -145 -72 -155 -60 -5 5
    -18 32 -31 59 l-22 50 25 58 c14 31 30 57 36 57 5 0 33 -9 62 -21z m-642 -210
    c14 -25 11 -30 -17 -23 -14 4 -19 11 -16 25 7 25 20 24 33 -2z m469 -21 c-29
    -11 -33 -5 -18 23 11 22 12 22 26 4 12 -17 11 -20 -8 -27z m-438 -83 c37 -5
    54 -14 89 -50 23 -24 40 -49 37 -57 -9 -24 -116 -80 -161 -85 -42 -5 -45 -4
    -61 28 -14 25 -16 47 -12 96 7 76 12 84 40 79 12 -3 43 -8 68 -11z m492 -30
    c11 -50 4 -130 -13 -150 -25 -30 -104 -12 -182 42 -21 14 -38 31 -38 37 0 7
    19 31 43 54 34 34 52 43 97 51 78 13 83 11 93 -34z m-263 22 c0 -2 -8 -11 -18
    -21 -18 -15 -20 -15 -37 4 -18 20 -18 20 18 20 21 0 37 -2 37 -3z"/>
    <path d="M2368 3514 c-107 -57 -21 -203 96 -164 80 26 90 127 16 165 -36 19
    -77 19 -112 -1z"/>
    <path d="M1349 3593 c-4 -119 -6 -131 -32 -175 -18 -31 -44 -57 -75 -75 l-47
    -28 -267 -5 -266 -5 -43 -30 c-23 -16 -53 -50 -66 -74 -22 -42 -23 -55 -23
    -234 0 -213 5 -232 70 -291 21 -19 56 -39 77 -45 49 -14 396 -14 446 0 47 13
    102 60 128 110 14 29 19 59 19 124 l0 85 -165 0 c-156 0 -165 1 -185 22 -11
    12 -20 30 -20 40 0 17 17 18 294 18 184 0 305 4 323 11 40 15 92 67 114 114
    16 34 19 66 19 211 0 102 -5 185 -11 205 -31 92 -117 149 -225 149 l-62 0 -3
    -127z m-199 -753 c39 -39 16 -100 -39 -100 -35 0 -51 17 -51 52 0 30 31 68 55
    68 8 0 24 -9 35 -20z"/>
    <path d="M3755 3480 c-261 -36 -469 -170 -566 -363 -86 -169 -76 -362 26 -523
    70 -110 199 -211 338 -265 104 -40 117 -35 117 40 l0 58 -79 5 c-67 4 -85 9
    -115 32 -20 15 -45 45 -56 67 -11 21 -38 51 -60 65 -22 15 -40 31 -40 35 0 16
    74 9 102 -9 14 -9 36 -30 48 -45 31 -39 71 -57 129 -57 58 0 81 7 81 25 0 7 9
    24 20 37 l19 25 -62 12 c-123 24 -202 76 -238 156 -41 91 -36 186 11 257 25
    36 29 50 24 84 -3 22 -1 60 6 83 l11 44 46 -7 c25 -3 71 -17 102 -31 54 -25
    61 -25 146 -16 60 7 119 7 184 0 93 -10 98 -9 155 16 32 14 78 28 101 32 l44
    6 11 -44 c7 -23 9 -61 6 -83 -5 -35 -1 -48 24 -85 35 -51 45 -95 37 -162 -17
    -138 -101 -218 -264 -249 l-62 -12 21 -29 c18 -24 22 -48 27 -151 5 -103 9
    -123 22 -126 27 -5 169 54 238 100 174 114 281 294 281 473 0 269 -207 504
    -517 585 -86 22 -235 32 -318 20z"/>
    <path d="M1525 2619 c-121 -55 -228 -109 -237 -120 -16 -19 -18 -46 -18 -229
    0 -245 -6 -232 119 -286 74 -32 92 -36 148 -32 49 3 69 9 86 26 21 22 22 30
    25 243 l3 220 -38 -3 -38 -3 -3 -202 c-2 -203 -2 -203 -27 -219 -28 -18 -61
    -11 -148 33 l-47 24 2 201 3 202 215 98 215 99 215 -99 215 -98 0 -204 0 -204
    -215 -98 -215 -99 -57 27 c-54 26 -60 27 -100 14 l-43 -13 84 -38 c46 -22 99
    -39 117 -39 43 0 471 191 497 221 15 19 17 46 17 229 0 183 -2 210 -17 228
    -28 32 -457 222 -501 222 -25 -1 -110 -34 -257 -101z"/>
    <path d="M1835 2446 c-5 -2 -22 -7 -37 -10 -44 -10 -88 -54 -88 -88 0 -16 4
    -37 10 -47 15 -29 82 -50 187 -61 105 -11 144 -28 136 -58 -7 -30 -46 -42
    -131 -42 -84 0 -122 13 -137 48 -8 17 -18 22 -48 22 -38 0 -39 -1 -33 -27 19
    -82 166 -124 317 -92 70 15 113 54 113 104 0 64 -41 85 -208 105 -100 12 -126
    22 -126 49 0 27 42 41 122 41 68 0 72 -1 104 -36 26 -27 41 -35 61 -32 23 2
    28 7 25 27 -3 30 -27 58 -66 78 -27 14 -178 28 -201 19z"/>
    <path d="M2980 2224 c-258 -33 -451 -113 -563 -233 -90 -98 -108 -194 -56
    -296 74 -144 308 -266 583 -304 l69 -10 53 47 c179 159 404 207 620 131 l62
    -22 36 22 c64 40 125 136 141 223 4 23 1 57 -10 94 -14 49 -28 69 -88 129
    -100 98 -240 163 -431 201 -79 15 -345 27 -416 18z"/>
    <path d="M2331 1399 c-1 -197 9 -231 98 -320 74 -74 200 -143 327 -177 l71
    -20 6 82 c3 44 15 110 26 146 12 36 21 68 21 72 0 4 -25 12 -56 18 -237 49
    -433 177 -482 315 -8 24 -11 0 -11 -116z"/>
    <path d="M3370 1364 c-141 -38 -260 -152 -310 -300 -80 -231 24 -491 237 -596
    65 -32 73 -33 183 -33 108 0 119 2 178 31 l63 31 154 -161 154 -161 36 35 c20
    19 50 52 67 72 l30 38 -44 49 c-24 27 -91 101 -151 164 l-107 115 24 52 c80
    173 46 391 -81 530 -116 126 -277 176 -433 134z m192 -210 c163 -55 221 -288
    107 -427 -91 -110 -259 -118 -360 -17 -59 59 -84 127 -77 214 7 77 34 132 92
    183 71 62 149 78 238 47z"/>
    <path d="M865 1306 c-149 -25 -261 -64 -362 -128 -75 -47 -118 -95 -151 -166
    -62 -136 21 -278 218 -376 265 -130 644 -142 930 -29 193 77 311 210 297 334
    -14 112 -90 200 -237 273 -145 71 -261 97 -455 102 -104 2 -188 -1 -240 -10z
    m194 -113 c-16 -68 -14 -73 34 -73 61 -1 120 -16 134 -36 17 -23 16 -79 -5
    -189 l-17 -90 -46 -3 -46 -3 19 107 c11 58 17 112 14 120 -4 10 -23 14 -60 14
    -62 0 -54 13 -81 -142 l-17 -98 -45 0 c-44 0 -45 1 -40 28 3 15 20 111 38 215
    l34 187 46 0 47 0 -9 -37z m-195 -96 c62 -41 71 -128 21 -214 -35 -59 -85 -83
    -174 -83 l-69 0 -7 -42 c-12 -77 -12 -78 -61 -78 -41 0 -44 2 -39 23 2 12 18
    99 35 192 17 94 33 183 36 199 l6 28 113 -4 c84 -3 119 -9 139 -21z m682 1
    c41 -22 58 -65 52 -133 -9 -104 -83 -165 -199 -165 -74 0 -73 1 -84 -74 l-7
    -46 -44 0 c-25 0 -44 5 -44 11 0 15 70 401 76 418 7 20 208 11 250 -11z"/>
    <path d="M687 1034 c-8 -25 -27 -134 -27 -151 0 -9 15 -13 49 -13 70 0 102 29
    108 96 6 61 -7 75 -76 82 -41 4 -50 1 -54 -14z"/>
    <path d="M1361 974 c-7 -43 -15 -84 -18 -91 -6 -16 71 -18 110 -4 26 10 57 65
    57 103 0 42 -21 59 -81 65 l-56 5 -12 -78z"/>
    <path d="M2331 869 c-1 -199 9 -231 103 -324 128 -126 330 -201 594 -221 l90
    -7 -83 86 c-63 65 -93 105 -125 170 l-43 85 -71 18 c-231 55 -406 174 -454
    309 -8 24 -11 0 -11 -116z"/>
    </g>
    </svg>