<svg version="1.0" xmlns="http://www.w3.org/2000/svg" viewBox="0 0 285.000000 234.000000" preserveAspectRatio="xMidYMid meet">
    <g transform="translate(0.000000,234.000000) scale(0.100000,-0.100000)"
    fill="#000000" stroke="none">
    <a href='https://www.linkedin.com/in/jefferson-maxwell-01201a219/' >
    <path d="M229 2157 c-59 -40 -59 -39 -59 -430 0 -400 2 -411 63 -440 31 -15
    86 -17 492 -17 406 0 461 2 492 17 61 29 63 40 63 440 0 391 0 390 -59 430
    l-34 23 -462 0 -462 0 -34 -23z m257 -118 c40 -37 31 -100 -17 -124 -90 -47
    -192 25 -149 105 28 52 120 62 166 19z m499 -220 c22 -6 55 -22 73 -35 56 -43
    62 -66 62 -234 l0 -150 -85 0 -85 0 0 140 0 140 -32 21 c-39 24 -81 19 -115
    -13 -22 -20 -23 -29 -23 -155 l0 -133 -85 0 -85 0 0 210 0 210 85 0 c85 0 85
    0 85 -26 l0 -25 28 19 c57 40 110 49 177 31z m-485 -209 l0 -210 -85 0 -85 0
    0 210 0 210 85 0 85 0 0 -210z"/>
    </a>
    <a href='https://www.instagram.com/j_maxwell__/' >
        <path d="M1730 2154 c-74 -20 -130 -55 -179 -110 -67 -76 -73 -113 -69 -407 3
        -235 4 -255 25 -292 45 -85 122 -142 230 -170 78 -20 630 -21 714 -1 104 24
        193 92 233 176 20 42 21 60 21 320 0 264 -1 277 -22 316 -31 58 -113 129 -181
        156 -55 22 -69 23 -387 25 -268 2 -340 -1 -385 -13z m740 -108 c19 -10 46 -28
        58 -40 50 -45 52 -57 52 -344 0 -263 0 -270 -23 -303 -28 -41 -77 -76 -129
        -90 -26 -6 -155 -9 -356 -7 -342 3 -347 4 -410 62 -50 45 -52 57 -52 344 0
        263 1 270 23 302 27 41 61 67 113 85 31 12 102 14 364 12 295 -2 328 -4 360
        -21z"/>
        <path d="M2360 1970 c-43 -43 -9 -100 58 -100 45 0 72 24 72 63 0 52 -89 78
        -130 37z"/>
        <path d="M2017 1910 c-95 -24 -182 -92 -213 -166 -20 -49 -17 -121 7 -171 81
        -168 354 -213 502 -82 141 123 106 313 -72 393 -67 30 -163 41 -224 26z m160
        -111 c39 -13 89 -67 98 -108 14 -64 -46 -152 -113 -166 -15 -4 -36 -8 -46 -10
        -38 -8 -117 17 -152 47 -91 80 -52 210 73 244 48 13 80 11 140 -7z"/>
    </a>
    <a href='https://github.com/MaxwellAt' >
    <path d="M575 1104 c-38 -8 -112 -35 -163 -60 -309 -149 -392 -483 -181 -727
    73 -85 234 -177 309 -177 30 0 30 1 30 53 l0 53 -38 -4 c-64 -6 -118 14 -149
    56 -16 20 -46 53 -67 74 -22 21 -37 41 -33 44 14 15 74 -12 114 -52 48 -46 89
    -61 143 -49 17 4 34 14 37 23 3 10 12 24 20 34 16 18 11 21 -62 33 -61 9 -127
    47 -158 91 -50 71 -53 184 -8 245 15 20 21 43 21 83 0 30 3 61 6 70 8 22 42
    20 110 -5 49 -19 79 -21 218 -22 141 0 168 2 219 21 68 26 103 28 111 6 3 -9
    6 -40 6 -69 0 -41 6 -63 25 -91 14 -20 26 -49 26 -63 6 -99 -20 -174 -72 -214
    -35 -26 -116 -57 -149 -57 -10 0 -26 -3 -35 -6 -14 -6 -14 -8 2 -26 14 -16 19
    -41 21 -123 3 -72 8 -105 17 -108 23 -9 149 42 218 89 328 224 289 640 -76
    819 -148 72 -304 92 -462 59z"/>
    </a>
    <a href='mailto:jeffersonmaxwell1603@gmail.com'>
    <path d="M1554 983 c-63 -31 -64 -38 -64 -388 0 -351 1 -359 64 -389 30 -14
    93 -16 551 -16 458 0 521 2 551 16 63 30 64 38 64 394 l0 320 -34 38 -34 37
    -534 2 c-466 2 -537 0 -564 -14z m341 -192 l211 -109 209 109 c139 72 221 109
    243 109 l32 0 0 -305 0 -305 -60 0 -60 0 0 221 0 221 -176 -91 c-97 -50 -181
    -91 -187 -91 -6 0 -91 41 -189 90 l-178 91 0 -221 0 -220 -60 0 -60 0 0 305 0
    305 32 0 c20 0 104 -38 243 -109z"/>
    </a>
    </g>
</svg>
